#!OML:ASF F:\VICON\USERDATA\INSTALL\rory3\rory3.ASF
:FULLY-SPECIFIED
:DEGREES
763
root 0.404736 17.3572 -4.03041 3.76787 -68.0625 -6.01233
lowerback 5.91759 -0.020943 -1.33891
upperback -4.86993 -0.1037 1.20325
thorax -8.45218 0.0555132 2.03916
lowerneck -21.316 -6.93555 -12.8289
upperneck -13.9388 -6.66348 11.429
head -0.100088 -2.94357 5.23681
rclavicle 4.02663e-014 1.49089e-015
rhumerus 91.8654 -27.7999 -49.8824
rradius 31.9303
rwrist -4.60178
rhand -41.8456 -1.35527
rfingers 7.12502
rthumb -14.7464 -30.8107
lclavicle 4.02663e-014 1.49089e-015
lhumerus 78.8594 18.0012 34.7187
lradius 45.2405
lwrist 11.38
lhand -21.3249 24.6366
lfingers 7.12502
lthumb 5.06068 54.5561
rfemur -10.0836 -0.591829 7.3378
rtibia 36.6881
rfoot -20.689 -2.86503
rtoes 2.64918
lfemur -3.27244 -2.9644 -18.7928
ltibia 33.3495
lfoot -24.6037 -8.60676
ltoes -5.69504
764
root 0.383648 17.3496 -4.07906 3.47639 -67.8684 -5.58739
lowerback 5.8877 -0.0452469 -1.45828
upperback -4.98317 -0.15272 1.16185
thorax -8.55553 0.0385603 2.06993
lowerneck -21.3053 -6.83329 -12.7176
upperneck -13.8812 -6.55399 11.3634
head -0.102334 -2.89323 5.20615
rclavicle -1.5791e-014 2.13694e-015
rhumerus 91.9013 -27.5445 -49.6576
rradius 32.041
rwrist -5.34771
rhand -42.1385 -1.90496
rfingers 7.12502
rthumb -15.0286 -31.3395
lclavicle -1.5791e-014 2.13694e-015
lhumerus 80.194 18.5263 35.3291
lradius 43.9866
lwrist 10.8368
lhand -20.7977 25.004
lfingers 7.12502
lthumb 5.56967 54.9108
rfemur -9.69236 0.0905497 6.88244
rtibia 35.6474
rfoot -20.358 -2.65886
rtoes 0.948254
lfemur -3.40419 -3.58977 -18.8652
ltibia 33.4111
lfoot -24.7143 -8.16315
ltoes -6.10479
765
root 0.363768 17.3453 -4.13358 3.17956 -67.6603 -5.15156
lowerback 5.87976 -0.0579855 -1.65345
upperback -5.08918 -0.192611 1.13758
thorax -8.66464 0.0316381 2.16046
lowerneck -21.3657 -6.67836 -12.4156
upperneck -13.79 -6.41578 11.1062
head -0.104551 -2.83718 5.08426
rclavicle 2.44381e-014 6.85807e-015
rhumerus 92.0454 -27.314 -49.6816
rradius 32.1513
rwrist -5.76184
rhand -42.158 -2.2751
rfingers 7.12502
rthumb -15.0474 -31.7083
lclavicle 2.44381e-014 6.85807e-015
lhumerus 81.4195 19.0193 35.8116
lradius 42.8151
lwrist 10.3883
lhand -20.736 25.1496
lfingers 7.12502
lthumb 5.62921 55.0548
rfemur -9.3679 0.88198 6.49132
rtibia 34.8081
rfoot -20.0234 -2.72779
rtoes -1.14798
lfemur -3.64364 -4.15043 -18.8423
ltibia 33.5528
lfoot -24.695 -8.08902
ltoes -5.97685
766
root 0.342882 17.3413 -4.19176 2.85359 -67.3799 -4.63959
lowerback 5.82999 -0.0340313 -1.87459
upperback -5.20811 -0.185331 1.11965
thorax -8.76586 0.0497848 2.26589
lowerneck -21.3592 -6.69009 -12.4116
upperneck -13.7736 -6.4303 11.0337
head -0.103498 -2.84305 5.05911
rclavicle -1.84311e-014 -3.67752e-015
rhumerus 92.0276 -27.1398 -49.4949
rradius 32.1299
rwrist -5.46097
rhand -42.3595 -2.44359
rfingers 7.12502
rthumb -15.2415 -31.8621
lclavicle -1.84311e-014 -3.67752e-015
lhumerus 82.6332 19.4346 36.3854
lradius 41.781
lwrist 9.88255
lhand -20.7195 25.5533
lfingers 7.12502
lthumb 5.64517 55.4581
rfemur -9.10668 1.76458 6.09426
rtibia 34.1924
rfoot -19.7688 -2.71769
rtoes -2.91301
lfemur -4.00701 -4.46168 -18.7691
ltibia 33.7647
lfoot -24.6992 -8.33484
ltoes -5.52534
767
root 0.323391 17.3303 -4.25395 2.44197 -67.1495 -4.13151
lowerback 5.86646 0.0472771 -2.06599
upperback -5.28756 -0.101613 1.05938
thorax -8.8795 0.102476 2.29965
lowerneck -21.339 -6.8142 -12.649
upperneck -13.6977 -6.5298 11.2458
head -0.053538 -2.87636 5.15444
rclavicle 3.20665e-014 2.43511e-015
rhumerus 91.8335 -27.1101 -49.0324
rradius 32.1888
rwrist -5.32313
rhand -42.5404 -2.2351
rfingers 7.12502
rthumb -15.4157 -31.6403
lclavicle 3.20665e-014 2.43511e-015
lhumerus 83.9309 19.7375 37.175
lradius 40.8686
lwrist 9.26887
lhand -20.8357 25.9887
lfingers 7.12502
lthumb 5.53294 55.8965
rfemur -8.84145 2.67113 5.71248
rtibia 33.8341
rfoot -19.3464 -2.55991
rtoes -4.50963
lfemur -4.26807 -4.63938 -18.695
ltibia 34.0066
lfoot -24.9089 -8.45862
ltoes -5.93054
768
root 0.307987 17.3165 -4.31497 2.19249 -66.9482 -3.8093
lowerback 5.99088 0.0828427 -2.14045
upperback -5.39165 -0.0681866 1.02523
thorax -9.06928 0.12551 2.30271
lowerneck -21.4728 -6.88204 -12.8638
upperneck -13.4164 -6.54771 11.4506
head 0.0692656 -2.86577 5.24312
rclavicle -1.40516e-014 -5.81445e-015
rhumerus 91.8593 -26.9666 -48.866
rradius 32.9415
rwrist -6.90901
rhand -41.7328 -3.54946
rfingers 7.12502
rthumb -14.6378 -33.0128
lclavicle -1.40516e-014 -5.81445e-015
lhumerus 85.0084 20.1151 37.7906
lradius 40.0938
lwrist 8.91829
lhand -20.4043 26.5975
lfingers 7.12502
lthumb 5.94951 56.4939
rfemur -8.67009 3.18461 5.43871
rtibia 33.713
rfoot -18.6476 -2.21756
rtoes -6.29494
lfemur -4.53663 -4.67142 -18.5073
ltibia 34.2569
lfoot -25.1501 -8.87621
ltoes -6.19135
769
root 0.293384 17.3003 -4.37818 1.71524 -66.7795 -3.27346
lowerback 6.16671 0.136666 -2.31001
upperback -5.48384 -0.0243756 0.950042
thorax -9.27815 0.158804 2.31411
lowerneck -21.5666 -6.90128 -12.8694
upperneck -13.2859 -6.55746 11.467
head 0.123292 -2.86486 5.24349
rclavicle -1.05356e-014 -1.18774e-014
rhumerus 91.6219 -26.92 -48.4174
rradius 33.2154
rwrist -7.26879
rhand -41.6577 -3.1344
rfingers 7.12502
rthumb -14.5654 -32.603
lclavicle -1.05356e-014 -1.18774e-014
lhumerus 85.9316 20.5541 38.1415
lradius 39.4855
lwrist 8.74561
lhand -20.0281 26.6825
lfingers 7.12502
lthumb 6.31273 56.5685
rfemur -8.51782 3.66206 5.09703
rtibia 33.7808
rfoot -18.0471 -1.54124
rtoes -6.77149
lfemur -4.77636 -4.63548 -18.3845
ltibia 34.4949
lfoot -25.3228 -9.34315
ltoes -6.09656
770
root 0.278088 17.2832 -4.44531 1.65568 -66.629 -3.12801
lowerback 6.28511 0.187014 -2.4747
upperback -5.58282 0.0251072 0.996789
thorax -9.46208 0.1991 2.45133
lowerneck -21.5558 -6.89946 -12.8041
upperneck -13.2647 -6.57075 11.3272
head 0.119328 -2.87425 5.18701
rclavicle 2.34814e-014 9.44227e-016
rhumerus 91.3555 -26.8282 -47.8357
rradius 33.5178
rwrist -7.43381
rhand -41.7614 -3.07984
rfingers 7.12502
rthumb -14.6653 -32.5412
lclavicle 2.34814e-014 9.44227e-016
lhumerus 86.7234 21.0767 38.4868
lradius 38.897
lwrist 8.62403
lhand -20.002 26.2581
lfingers 7.12502
lthumb 6.33789 56.1432
rfemur -8.44431 4.15005 4.97329
rtibia 33.973
rfoot -17.4935 -0.934476
rtoes -6.97513
lfemur -5.05952 -4.49211 -18.0497
ltibia 34.7465
lfoot -25.6959 -9.78493
ltoes -6.53469
771
root 0.266157 17.2623 -4.51429 1.77904 -66.4903 -3.24284
lowerback 6.44897 0.219232 -2.50187
upperback -5.66228 0.0684248 1.09366
thorax -9.65104 0.2295 2.56562
lowerneck -21.4158 -6.87029 -12.9694
upperneck -13.2036 -6.50678 11.3562
head 0.118751 -2.83571 5.22945
rclavicle 2.14905e-014 4.39811e-015
rhumerus 91.2541 -26.6621 -47.3496
rradius 33.707
rwrist -7.17276
rhand -41.7051 -3.22522
rfingers 7.12502
rthumb -14.611 -32.6905
lclavicle 2.14905e-014 4.39811e-015
lhumerus 87.2002 21.7215 38.5742
lradius 38.5294
lwrist 8.53174
lhand -20.2181 26.0772
lfingers 7.12502
lthumb 6.12928 55.9685
rfemur -8.35319 4.53861 5.02636
rtibia 34.2569
rfoot -17.0221 -0.326413
rtoes -7.62868
lfemur -5.2679 -4.24869 -17.6358
ltibia 34.9786
lfoot -26.2671 -9.8811
ltoes -8.08078
772
root 0.256232 17.2419 -4.57934 2.05186 -66.3758 -3.49836
lowerback 6.54488 0.281472 -2.32385
upperback -5.71593 0.172123 1.1344
thorax -9.77276 0.271428 2.49458
lowerneck -21.2538 -6.84369 -13.1575
upperneck -13.2152 -6.439 11.5164
head 0.101672 -2.79372 5.31968
rclavicle 3.68249e-014 1.6524e-015
rhumerus 91.0852 -26.6525 -46.8007
rradius 33.8668
rwrist -6.87926
rhand -41.6472 -3.47303
rfingers 7.12502
rthumb -14.5553 -32.9424
lclavicle 3.68249e-014 1.6524e-015
lhumerus 87.6518 22.373 38.514
lradius 38.2214
lwrist 8.40042
lhand -20.4659 26.4305
lfingers 7.12502
lthumb 5.89001 56.3287
rfemur -8.32234 4.62451 5.13154
rtibia 34.5824
rfoot -16.3737 0.812042
rtoes -5.79246
lfemur -5.50184 -3.92788 -17.2013
ltibia 35.2318
lfoot -26.8276 -9.68708
ltoes -9.6834
773
root 0.244984 17.2211 -4.64459 2.19653 -66.3071 -3.63423
lowerback 6.69109 0.383138 -2.22624
upperback -5.74684 0.313953 1.09955
thorax -9.90164 0.334256 2.3817
lowerneck -21.1794 -6.90683 -13.2077
upperneck -13.2689 -6.5083 11.6878
head 0.0959415 -2.82409 5.37853
rclavicle 3.41537e-014 2.26366e-014
rhumerus 90.9322 -26.7378 -46.3621
rradius 33.9504
rwrist -6.79196
rhand -41.7322 -3.24947
rfingers 7.12502
rthumb -14.6372 -32.7129
lclavicle 3.41537e-014 2.26366e-014
lhumerus 88.4805 22.7989 38.7367
lradius 37.6835
lwrist 7.60698
lhand -20.6344 26.4541
lfingers 7.12502
lthumb 5.72738 56.3567
rfemur -8.29015 4.52694 5.17521
rtibia 34.9295
rfoot -15.1794 2.53921
rtoes -0.429148
lfemur -5.69722 -3.69806 -16.8198
ltibia 35.5011
lfoot -27.2931 -9.77927
ltoes -9.97073
774
root 0.235243 17.2025 -4.712 2.3432 -66.2134 -3.81562
lowerback 6.9446 0.464867 -2.12366
upperback -5.78964 0.433487 1.1272
thorax -10.107 0.38948 2.33588
lowerneck -20.81 -7.07439 -13.7094
upperneck -13.5042 -6.64799 11.9623
head 0.0220174 -2.87706 5.54708
rclavicle -5.41626e-014 -1.22998e-014
rhumerus 90.9438 -26.6367 -46.1193
rradius 34.0236
rwrist -6.82713
rhand -41.9327 -2.47997
rfingers 7.12502
rthumb -14.8303 -31.9293
lclavicle -5.41626e-014 -1.22998e-014
lhumerus 88.9723 23.3211 38.9114
lradius 37.4941
lwrist 7.09047
lhand -20.526 26.4602
lfingers 7.12502
lthumb 5.83201 56.36
rfemur -8.24523 4.28298 5.2968
rtibia 35.2883
rfoot -13.9369 4.08626
rtoes 2.33854
lfemur -5.84087 -3.53427 -16.4327
ltibia 35.7673
lfoot -27.854 -9.54937
ltoes -12.1032
